<?xml version="1.0" encoding="utf-8"?>
<!-- Generator: Adobe Illustrator 16.0.0, SVG Export Plug-In . SVG Version: 6.00 Build 0)  -->
<!DOCTYPE svg PUBLIC "-//W3C//DTD SVG 1.1//EN" "http://www.w3.org/Graphics/SVG/1.1/DTD/svg11.dtd">
<svg version="1.1" id="Capa_1" xmlns="http://www.w3.org/2000/svg" xmlns:xlink="http://www.w3.org/1999/xlink" x="0px" y="0px"
	 width="512px" height="512px" viewBox="0 0 512 512" enable-background="new 0 0 512 512" xml:space="preserve">
<g>
	<path fill="#707070" d="M506.884,137.485l-25.649-25.647c-3.418-3.425-7.354-5.132-11.806-5.132c-4.44,0-8.376,1.707-11.793,5.132
		L256.003,313.46L54.379,111.843c-3.419-3.425-7.355-5.132-11.8-5.132c-4.448,0-8.383,1.707-11.801,5.132L5.132,137.493
		C1.707,140.911,0,144.846,0,149.293c0,4.444,1.712,8.379,5.132,11.797l239.07,239.076c3.418,3.42,7.355,5.129,11.801,5.129
		c4.445,0,8.376-1.709,11.792-5.129L506.884,161.09c3.418-3.419,5.116-7.355,5.116-11.797
		C512,144.846,510.302,140.911,506.884,137.485z"/>
</g>
</svg>
